<svg width="664" height="494" viewBox="0 0 664 494" fill="none" xmlns="http://www.w3.org/2000/svg">
<path d="M272.264 84.4941L575.264 175.994L582.764 368.994L262.264 269.494L272.264 84.4941Z" fill="url(#paint0_linear)"/>
<path d="M272.842 83.994L268.93 263.32L99.8424 357.494L92.7642 174.994L272.842 83.994Z" fill="url(#paint1_linear)"/>
<path d="M93.2642 175.494L425.264 249.994L438.764 452.994L98.2642 359.994L93.2642 175.494Z" fill="url(#paint2_linear)"/>
<g filter="url(#filter0_d)">
<path d="M463.264 334.994L430.264 254.994L573.264 180.994L583.264 264.494L463.264 334.994Z" fill="url(#paint3_linear)"/>
</g>
<g filter="url(#filter1_df)">
<path d="M420.406 262.002L83.8081 198.994L48.9057 239.002L229.656 281.752L410.406 324.502L420.406 262.002Z" fill="url(#paint4_linear)"/>
</g>
<path d="M431.91 248.284L92.7642 176.494L51.3619 228.285L392.744 317.994L431.91 248.284Z" fill="url(#paint5_linear)"/>
<path d="M425.764 251.494L576.264 175.994L585.764 370.494L438.264 453.994L425.764 251.494Z" fill="url(#paint6_linear)"/>
<path d="M483.764 327.776L426.264 250.994L575.764 176.494L622.264 245.276L483.764 327.776Z" fill="url(#paint7_linear)"/>
<g filter="url(#filter2_df)">
<path d="M125.518 325.49C126.025 325.69 126.536 325.873 127.051 326.038C127.567 326.203 128.069 326.346 128.558 326.467C129.746 326.762 130.89 326.86 131.99 326.762C133.125 326.673 134.146 326.37 135.053 325.853C135.995 325.345 136.802 324.637 137.472 323.727C138.143 322.818 138.647 321.682 138.986 320.319C139.662 317.594 139.348 315.346 138.044 313.576C136.775 311.815 134.83 310.609 132.209 309.959L129.536 309.295L125.518 325.49ZM109.984 339.885L110.582 337.474L115.69 337.517L123.025 307.958L118.489 305.608L119.087 303.197L133.029 306.657C143.301 309.206 147.488 314.306 145.589 321.958C144.627 325.836 142.562 328.403 139.395 329.657C136.271 330.885 132.526 330.957 128.158 329.873C126.935 329.57 125.786 329.192 124.712 328.74L122.137 339.117L128.245 341.857L127.646 344.267L109.984 339.885ZM144.035 341.435C145.535 335.39 151.648 333.699 162.375 336.36L162.83 334.526C163.585 331.486 163.625 329.456 162.95 328.436C162.32 327.389 161.096 326.64 159.279 326.19L151.847 329.909C151.138 329.177 150.604 328.265 150.244 327.175C149.928 326.058 149.887 324.953 150.121 323.861C151.787 323.422 153.546 323.209 155.397 323.223C157.257 323.203 159.043 323.405 160.755 323.829C167.918 325.607 170.754 329.5 169.263 335.51L165.647 350.08L169.735 351.095L169.306 352.824C168.312 353.393 167.273 353.766 166.191 353.943C165.1 354.154 164.083 354.143 163.139 353.909C161.078 353.397 159.779 352.129 159.243 350.105C156.46 351.306 153.601 351.542 150.666 350.814C148.36 350.242 146.52 349.136 145.146 347.497C143.807 345.867 143.437 343.846 144.035 341.435ZM150.691 342.864C150.37 344.157 150.551 345.222 151.234 346.059C151.951 346.904 152.974 347.492 154.301 347.821C156.223 348.298 158.013 348.112 159.67 347.262L161.712 339.033C158.567 338.253 156.048 338.24 154.155 338.994C152.305 339.722 151.15 341.012 150.691 342.864ZM174.985 342.216C176.017 338.058 178.111 334.998 181.269 333.037C184.461 331.084 187.856 330.554 191.455 331.447C194.565 332.219 197.178 333.646 199.295 335.729C198.965 336.908 198.342 337.922 197.427 338.771C196.521 339.585 195.592 340.114 194.64 340.361L190.792 334.343L190.478 334.265C188.618 334.137 186.834 334.9 185.125 336.553C183.425 338.171 182.185 340.553 181.405 343.697C180.512 347.296 180.679 350.138 181.905 352.223C183.166 354.316 185.159 355.701 187.884 356.377C190.016 356.906 192.094 356.902 194.118 356.366L194.372 359.155C191.047 359.999 187.864 360.044 184.825 359.29C181.051 358.353 178.188 356.363 176.236 353.32C174.327 350.25 173.91 346.548 174.985 342.216ZM196.3 361.303L196.86 359.049L201.575 359.106L210.106 324.725L205.651 323.619L206.21 321.366L215.09 321.455L217.448 322.04L207.864 360.667L211.01 362.56L210.451 364.814L196.3 361.303ZM211.07 351.559L223.249 343.509L219.958 341.747L220.518 339.493L232.362 342.432L231.803 344.686L226.931 344.59L217.669 350.748L223.417 364.582L227.467 366.644L226.908 368.897L217.16 366.479L211.07 351.559ZM229.802 369.615L230.4 367.205L235.56 367.261L242.895 337.701L238.307 335.339L238.905 332.928L254.995 336.921L254.397 339.331L249.289 339.288L241.954 368.848L246.49 371.197L245.892 373.608L229.802 369.615ZM254.809 351.34L255.199 349.768L264.215 345.273L265.787 345.663L264.525 350.747L272.151 352.305L271.37 355.449L263.823 353.577L259.844 369.614C259.072 372.724 259.927 374.587 262.407 375.202C263.456 375.462 264.792 375.46 266.415 375.195L266.708 377.827C264.264 378.408 261.889 378.412 259.583 377.84C257.067 377.216 255.258 376.136 254.155 374.601C253.096 373.04 252.935 370.775 253.672 367.805L257.586 352.029L254.809 351.34ZM275.745 344.629L276.344 342.218L292.434 346.21L291.835 348.621L286.727 348.578L281.916 367.97C281.049 371.464 281.255 374.297 282.533 376.468C283.847 378.649 285.971 380.103 288.906 380.832C291.806 381.551 294.364 381.259 296.579 379.954C298.803 378.614 300.345 376.214 301.203 372.755L306.015 353.363L301.427 351.001L302.025 348.59L315.442 351.919L314.844 354.33L309.736 354.287L304.924 373.679C304.352 375.985 303.473 377.955 302.289 379.59C301.139 381.234 299.766 382.506 298.17 383.409C296.574 384.311 294.785 384.868 292.803 385.081C290.865 385.268 288.83 385.097 286.699 384.568C284.533 384.031 282.619 383.222 280.958 382.142C279.298 381.062 277.955 379.746 276.931 378.194C275.95 376.615 275.314 374.844 275.022 372.88C274.739 370.881 274.888 368.711 275.469 366.37L280.281 346.978L275.745 344.629ZM304.228 402.382L308.943 402.439L317.474 368.058L313.02 366.952L313.579 364.699L322.459 364.788L324.817 365.373L324.219 367.784C326.879 366.181 329.764 365.766 332.874 366.538C335.844 367.275 338.104 369.004 339.654 371.725C341.239 374.455 341.512 377.917 340.471 382.11C339.301 386.827 336.94 390.136 333.39 392.036C329.849 393.902 326.016 394.324 321.893 393.301C320.461 392.945 319.238 392.494 318.224 391.945L315.233 404L320.476 406.413L319.916 408.667L303.669 404.636L304.228 402.382ZM318.965 388.958C319.927 389.567 320.984 390.015 322.137 390.301C324.757 390.952 327.14 390.467 329.285 388.848C331.43 387.229 332.975 384.515 333.92 380.707C334.649 377.772 334.548 375.41 333.62 373.622C332.735 371.807 331.296 370.653 329.305 370.159C327.348 369.673 325.414 369.842 323.504 370.667L318.965 388.958Z" fill="black"/>
</g>
<g clip-path="url(#clip0)">
<path d="M424.211 356.033L356.303 339.047L339.317 406.955L407.225 423.941L424.211 356.033Z" fill="url(#paint8_linear)" fill-opacity="0.72"/>
<path d="M361.676 345.007L359.627 344.494L359.115 346.543L361.164 347.056L361.676 345.007Z" fill="black"/>
<path d="M363.725 345.519L361.676 345.007L361.164 347.056L363.213 347.568L363.725 345.519Z" fill="black"/>
<path d="M365.774 346.032L363.725 345.519L363.213 347.568L365.262 348.081L365.774 346.032Z" fill="black"/>
<path d="M367.823 346.544L365.774 346.032L365.262 348.081L367.31 348.593L367.823 346.544Z" fill="black"/>
<path d="M369.872 347.057L367.823 346.544L367.31 348.593L369.359 349.106L369.872 347.057Z" fill="black"/>
<path d="M371.921 347.569L369.872 347.057L369.359 349.106L371.408 349.618L371.921 347.569Z" fill="black"/>
<path d="M373.97 348.082L371.921 347.569L371.408 349.618L373.457 350.131L373.97 348.082Z" fill="black"/>
<path d="M378.068 349.107L376.019 348.594L375.506 350.643L377.555 351.156L378.068 349.107Z" fill="black"/>
<path d="M380.117 349.619L378.068 349.107L377.555 351.156L379.604 351.668L380.117 349.619Z" fill="black"/>
<path d="M386.263 351.157L384.215 350.644L383.702 352.693L385.751 353.206L386.263 351.157Z" fill="black"/>
<path d="M388.312 351.669L386.263 351.157L385.751 353.206L387.8 353.718L388.312 351.669Z" fill="black"/>
<path d="M392.41 352.694L390.361 352.182L389.849 354.231L391.898 354.743L392.41 352.694Z" fill="black"/>
<path d="M398.557 354.232L396.508 353.719L395.996 355.768L398.045 356.281L398.557 354.232Z" fill="black"/>
<path d="M402.655 355.257L400.606 354.744L400.094 356.793L402.142 357.306L402.655 355.257Z" fill="black"/>
<path d="M406.753 356.282L404.704 355.769L404.191 357.818L406.24 358.331L406.753 356.282Z" fill="black"/>
<path d="M408.802 356.794L406.753 356.282L406.24 358.331L408.289 358.843L408.802 356.794Z" fill="black"/>
<path d="M410.851 357.307L408.802 356.794L408.289 358.843L410.338 359.356L410.851 357.307Z" fill="black"/>
<path d="M412.9 357.819L410.851 357.307L410.338 359.356L412.387 359.868L412.9 357.819Z" fill="black"/>
<path d="M414.949 358.332L412.9 357.819L412.387 359.868L414.436 360.381L414.949 358.332Z" fill="black"/>
<path d="M416.998 358.844L414.949 358.332L414.436 360.381L416.485 360.893L416.998 358.844Z" fill="black"/>
<path d="M419.047 359.357L416.998 358.844L416.485 360.893L418.534 361.406L419.047 359.357Z" fill="black"/>
<path d="M361.164 347.056L359.115 346.543L358.602 348.592L360.651 349.104L361.164 347.056Z" fill="black"/>
<path d="M373.457 350.131L371.408 349.618L370.896 351.667L372.945 352.18L373.457 350.131Z" fill="black"/>
<path d="M381.653 352.181L379.604 351.668L379.092 353.717L381.141 354.23L381.653 352.181Z" fill="black"/>
<path d="M389.849 354.231L387.8 353.718L387.287 355.767L389.336 356.28L389.849 354.231Z" fill="black"/>
<path d="M391.898 354.743L389.849 354.231L389.336 356.28L391.385 356.792L391.898 354.743Z" fill="black"/>
<path d="M393.947 355.256L391.898 354.743L391.385 356.792L393.434 357.305L393.947 355.256Z" fill="black"/>
<path d="M395.996 355.768L393.947 355.256L393.434 357.305L395.483 357.817L395.996 355.768Z" fill="black"/>
<path d="M406.24 358.331L404.191 357.818L403.679 359.867L405.728 360.38L406.24 358.331Z" fill="black"/>
<path d="M418.534 361.406L416.485 360.893L415.973 362.942L418.021 363.455L418.534 361.406Z" fill="black"/>
<path d="M360.651 349.104L358.602 348.592L358.09 350.641L360.139 351.153L360.651 349.104Z" fill="black"/>
<path d="M364.749 350.13L362.7 349.617L362.188 351.666L364.236 352.178L364.749 350.13Z" fill="black"/>
<path d="M366.798 350.642L364.749 350.13L364.236 352.178L366.285 352.691L366.798 350.642Z" fill="black"/>
<path d="M368.847 351.155L366.798 350.642L366.285 352.691L368.334 353.203L368.847 351.155Z" fill="black"/>
<path d="M372.945 352.18L370.896 351.667L370.383 353.716L372.432 354.229L372.945 352.18Z" fill="black"/>
<path d="M383.189 354.742L381.141 354.23L380.628 356.279L382.677 356.791L383.189 354.742Z" fill="black"/>
<path d="M387.287 355.767L385.238 355.255L384.726 357.304L386.775 357.816L387.287 355.767Z" fill="black"/>
<path d="M405.728 360.38L403.679 359.867L403.166 361.916L405.215 362.429L405.728 360.38Z" fill="black"/>
<path d="M409.826 361.405L407.777 360.892L407.264 362.941L409.313 363.454L409.826 361.405Z" fill="black"/>
<path d="M411.875 361.917L409.826 361.405L409.313 363.454L411.362 363.966L411.875 361.917Z" fill="black"/>
<path d="M413.924 362.43L411.875 361.917L411.362 363.966L413.411 364.479L413.924 362.43Z" fill="black"/>
<path d="M418.021 363.455L415.973 362.942L415.46 364.991L417.509 365.504L418.021 363.455Z" fill="black"/>
<path d="M360.139 351.153L358.09 350.641L357.577 352.69L359.626 353.202L360.139 351.153Z" fill="black"/>
<path d="M364.236 352.178L362.188 351.666L361.675 353.715L363.724 354.227L364.236 352.178Z" fill="black"/>
<path d="M366.285 352.691L364.236 352.178L363.724 354.227L365.773 354.74L366.285 352.691Z" fill="black"/>
<path d="M368.334 353.203L366.285 352.691L365.773 354.74L367.822 355.252L368.334 353.203Z" fill="black"/>
<path d="M372.432 354.229L370.383 353.716L369.871 355.765L371.92 356.277L372.432 354.229Z" fill="black"/>
<path d="M376.53 355.254L374.481 354.741L373.969 356.79L376.018 357.302L376.53 355.254Z" fill="black"/>
<path d="M378.579 355.766L376.53 355.254L376.018 357.302L378.067 357.815L378.579 355.766Z" fill="black"/>
<path d="M380.628 356.279L378.579 355.766L378.067 357.815L380.116 358.328L380.628 356.279Z" fill="black"/>
<path d="M382.677 356.791L380.628 356.279L380.116 358.328L382.164 358.84L382.677 356.791Z" fill="black"/>
<path d="M386.775 357.816L384.726 357.304L384.213 359.353L386.262 359.865L386.775 357.816Z" fill="black"/>
<path d="M388.824 358.329L386.775 357.816L386.262 359.865L388.311 360.378L388.824 358.329Z" fill="black"/>
<path d="M390.873 358.841L388.824 358.329L388.311 360.378L390.36 360.89L390.873 358.841Z" fill="black"/>
<path d="M397.02 360.379L394.971 359.866L394.458 361.915L396.507 362.428L397.02 360.379Z" fill="black"/>
<path d="M405.215 362.429L403.166 361.916L402.654 363.965L404.703 364.478L405.215 362.429Z" fill="black"/>
<path d="M409.313 363.454L407.264 362.941L406.752 364.99L408.801 365.503L409.313 363.454Z" fill="black"/>
<path d="M411.362 363.966L409.313 363.454L408.801 365.503L410.85 366.015L411.362 363.966Z" fill="black"/>
<path d="M413.411 364.479L411.362 363.966L410.85 366.015L412.899 366.528L413.411 364.479Z" fill="black"/>
<path d="M417.509 365.504L415.46 364.991L414.948 367.04L416.996 367.553L417.509 365.504Z" fill="black"/>
<path d="M359.626 353.202L357.577 352.69L357.065 354.739L359.114 355.251L359.626 353.202Z" fill="black"/>
<path d="M363.724 354.227L361.675 353.715L361.163 355.764L363.211 356.276L363.724 354.227Z" fill="black"/>
<path d="M365.773 354.74L363.724 354.227L363.211 356.276L365.26 356.789L365.773 354.74Z" fill="black"/>
<path d="M367.822 355.252L365.773 354.74L365.26 356.789L367.309 357.301L367.822 355.252Z" fill="black"/>
<path d="M371.92 356.277L369.871 355.765L369.358 357.814L371.407 358.326L371.92 356.277Z" fill="black"/>
<path d="M378.067 357.815L376.018 357.302L375.505 359.351L377.554 359.864L378.067 357.815Z" fill="black"/>
<path d="M380.116 358.328L378.067 357.815L377.554 359.864L379.603 360.376L380.116 358.328Z" fill="black"/>
<path d="M386.262 359.865L384.213 359.353L383.701 361.401L385.75 361.914L386.262 359.865Z" fill="black"/>
<path d="M388.311 360.378L386.262 359.865L385.75 361.914L387.799 362.427L388.311 360.378Z" fill="black"/>
<path d="M390.36 360.89L388.311 360.378L387.799 362.427L389.848 362.939L390.36 360.89Z" fill="black"/>
<path d="M392.409 361.403L390.36 360.89L389.848 362.939L391.897 363.452L392.409 361.403Z" fill="black"/>
<path d="M396.507 362.428L394.458 361.915L393.946 363.964L395.995 364.477L396.507 362.428Z" fill="black"/>
<path d="M398.556 362.94L396.507 362.428L395.995 364.477L398.043 364.989L398.556 362.94Z" fill="black"/>
<path d="M400.605 363.453L398.556 362.94L398.043 364.989L400.092 365.502L400.605 363.453Z" fill="black"/>
<path d="M404.703 364.478L402.654 363.965L402.141 366.014L404.19 366.527L404.703 364.478Z" fill="black"/>
<path d="M408.801 365.503L406.752 364.99L406.239 367.039L408.288 367.552L408.801 365.503Z" fill="black"/>
<path d="M410.85 366.015L408.801 365.503L408.288 367.552L410.337 368.064L410.85 366.015Z" fill="black"/>
<path d="M412.899 366.528L410.85 366.015L410.337 368.064L412.386 368.577L412.899 366.528Z" fill="black"/>
<path d="M416.996 367.553L414.948 367.04L414.435 369.089L416.484 369.602L416.996 367.553Z" fill="black"/>
<path d="M359.114 355.251L357.065 354.739L356.552 356.788L358.601 357.3L359.114 355.251Z" fill="black"/>
<path d="M371.407 358.326L369.358 357.814L368.846 359.863L370.895 360.375L371.407 358.326Z" fill="black"/>
<path d="M375.505 359.351L373.456 358.839L372.944 360.888L374.993 361.4L375.505 359.351Z" fill="black"/>
<path d="M381.652 360.889L379.603 360.376L379.09 362.425L381.139 362.938L381.652 360.889Z" fill="black"/>
<path d="M383.701 361.401L381.652 360.889L381.139 362.938L383.188 363.45L383.701 361.401Z" fill="black"/>
<path d="M385.75 361.914L383.701 361.401L383.188 363.45L385.237 363.963L385.75 361.914Z" fill="black"/>
<path d="M387.799 362.427L385.75 361.914L385.237 363.963L387.286 364.475L387.799 362.427Z" fill="black"/>
<path d="M393.946 363.964L391.897 363.452L391.384 365.5L393.433 366.013L393.946 363.964Z" fill="black"/>
<path d="M400.092 365.502L398.043 364.989L397.531 367.038L399.58 367.551L400.092 365.502Z" fill="black"/>
<path d="M404.19 366.527L402.141 366.014L401.629 368.063L403.678 368.576L404.19 366.527Z" fill="black"/>
<path d="M416.484 369.602L414.435 369.089L413.922 371.138L415.971 371.651L416.484 369.602Z" fill="black"/>
<path d="M358.601 357.3L356.552 356.788L356.04 358.837L358.089 359.349L358.601 357.3Z" fill="black"/>
<path d="M360.65 357.813L358.601 357.3L358.089 359.349L360.137 359.862L360.65 357.813Z" fill="black"/>
<path d="M362.699 358.325L360.65 357.813L360.137 359.862L362.186 360.374L362.699 358.325Z" fill="black"/>
<path d="M364.748 358.838L362.699 358.325L362.186 360.374L364.235 360.887L364.748 358.838Z" fill="black"/>
<path d="M366.797 359.35L364.748 358.838L364.235 360.887L366.284 361.399L366.797 359.35Z" fill="black"/>
<path d="M368.846 359.863L366.797 359.35L366.284 361.399L368.333 361.912L368.846 359.863Z" fill="black"/>
<path d="M370.895 360.375L368.846 359.863L368.333 361.912L370.382 362.424L370.895 360.375Z" fill="black"/>
<path d="M374.993 361.4L372.944 360.888L372.431 362.937L374.48 363.449L374.993 361.4Z" fill="black"/>
<path d="M379.09 362.425L377.042 361.913L376.529 363.962L378.578 364.474L379.09 362.425Z" fill="black"/>
<path d="M383.188 363.45L381.139 362.938L380.627 364.987L382.676 365.499L383.188 363.45Z" fill="black"/>
<path d="M387.286 364.475L385.237 363.963L384.725 366.012L386.774 366.524L387.286 364.475Z" fill="black"/>
<path d="M391.384 365.5L389.335 364.988L388.823 367.037L390.872 367.549L391.384 365.5Z" fill="black"/>
<path d="M395.482 366.526L393.433 366.013L392.921 368.062L394.969 368.574L395.482 366.526Z" fill="black"/>
<path d="M399.58 367.551L397.531 367.038L397.018 369.087L399.067 369.599L399.58 367.551Z" fill="black"/>
<path d="M403.678 368.576L401.629 368.063L401.116 370.112L403.165 370.625L403.678 368.576Z" fill="black"/>
<path d="M405.727 369.088L403.678 368.576L403.165 370.625L405.214 371.137L405.727 369.088Z" fill="black"/>
<path d="M407.776 369.601L405.727 369.088L405.214 371.137L407.263 371.65L407.776 369.601Z" fill="black"/>
<path d="M409.825 370.113L407.776 369.601L407.263 371.65L409.312 372.162L409.825 370.113Z" fill="black"/>
<path d="M411.874 370.626L409.825 370.113L409.312 372.162L411.361 372.675L411.874 370.626Z" fill="black"/>
<path d="M413.922 371.138L411.874 370.626L411.361 372.675L413.41 373.187L413.922 371.138Z" fill="black"/>
<path d="M415.971 371.651L413.922 371.138L413.41 373.187L415.459 373.7L415.971 371.651Z" fill="black"/>
<path d="M376.529 363.962L374.48 363.449L373.968 365.498L376.017 366.011L376.529 363.962Z" fill="black"/>
<path d="M378.578 364.474L376.529 363.962L376.017 366.011L378.065 366.523L378.578 364.474Z" fill="black"/>
<path d="M380.627 364.987L378.578 364.474L378.065 366.523L380.114 367.036L380.627 364.987Z" fill="black"/>
<path d="M382.676 365.499L380.627 364.987L380.114 367.036L382.163 367.548L382.676 365.499Z" fill="black"/>
<path d="M384.725 366.012L382.676 365.499L382.163 367.548L384.212 368.061L384.725 366.012Z" fill="black"/>
<path d="M386.774 366.524L384.725 366.012L384.212 368.061L386.261 368.573L386.774 366.524Z" fill="black"/>
<path d="M390.872 367.549L388.823 367.037L388.31 369.086L390.359 369.598L390.872 367.549Z" fill="black"/>
<path d="M392.921 368.062L390.872 367.549L390.359 369.598L392.408 370.111L392.921 368.062Z" fill="black"/>
<path d="M394.969 368.574L392.921 368.062L392.408 370.111L394.457 370.623L394.969 368.574Z" fill="black"/>
<path d="M399.067 369.599L397.018 369.087L396.506 371.136L398.555 371.648L399.067 369.599Z" fill="black"/>
<path d="M367.821 363.961L365.772 363.448L365.259 365.497L367.308 366.01L367.821 363.961Z" fill="black"/>
<path d="M369.87 364.473L367.821 363.961L367.308 366.01L369.357 366.522L369.87 364.473Z" fill="black"/>
<path d="M373.968 365.498L371.919 364.986L371.406 367.035L373.455 367.547L373.968 365.498Z" fill="black"/>
<path d="M382.163 367.548L380.114 367.036L379.602 369.085L381.651 369.597L382.163 367.548Z" fill="black"/>
<path d="M388.31 369.086L386.261 368.573L385.749 370.622L387.798 371.135L388.31 369.086Z" fill="black"/>
<path d="M392.408 370.111L390.359 369.598L389.847 371.647L391.896 372.16L392.408 370.111Z" fill="black"/>
<path d="M394.457 370.623L392.408 370.111L391.896 372.16L393.944 372.672L394.457 370.623Z" fill="black"/>
<path d="M400.604 372.161L398.555 371.648L398.042 373.697L400.091 374.21L400.604 372.161Z" fill="black"/>
<path d="M404.702 373.186L402.653 372.673L402.14 374.722L404.189 375.235L404.702 373.186Z" fill="black"/>
<path d="M408.8 374.211L406.751 373.698L406.238 375.747L408.287 376.26L408.8 374.211Z" fill="black"/>
<path d="M414.946 375.749L412.897 375.236L412.385 377.285L414.434 377.797L414.946 375.749Z" fill="black"/>
<path d="M357.064 363.447L355.015 362.935L354.502 364.984L356.551 365.496L357.064 363.447Z" fill="black"/>
<path d="M363.21 364.985L361.161 364.472L360.649 366.521L362.698 367.034L363.21 364.985Z" fill="black"/>
<path d="M365.259 365.497L363.21 364.985L362.698 367.034L364.747 367.546L365.259 365.497Z" fill="black"/>
<path d="M371.406 367.035L369.357 366.522L368.845 368.571L370.894 369.084L371.406 367.035Z" fill="black"/>
<path d="M383.7 370.11L381.651 369.597L381.138 371.646L383.187 372.159L383.7 370.11Z" fill="black"/>
<path d="M385.749 370.622L383.7 370.11L383.187 372.159L385.236 372.671L385.749 370.622Z" fill="black"/>
<path d="M389.847 371.647L387.798 371.135L387.285 373.184L389.334 373.696L389.847 371.647Z" fill="black"/>
<path d="M391.896 372.16L389.847 371.647L389.334 373.696L391.383 374.209L391.896 372.16Z" fill="black"/>
<path d="M393.944 372.672L391.896 372.16L391.383 374.209L393.432 374.721L393.944 372.672Z" fill="black"/>
<path d="M398.042 373.697L395.993 373.185L395.481 375.234L397.53 375.746L398.042 373.697Z" fill="black"/>
<path d="M402.14 374.722L400.091 374.21L399.579 376.259L401.628 376.771L402.14 374.722Z" fill="black"/>
<path d="M404.189 375.235L402.14 374.722L401.628 376.771L403.677 377.284L404.189 375.235Z" fill="black"/>
<path d="M406.238 375.747L404.189 375.235L403.677 377.284L405.726 377.796L406.238 375.747Z" fill="black"/>
<path d="M408.287 376.26L406.238 375.747L405.726 377.796L407.775 378.309L408.287 376.26Z" fill="black"/>
<path d="M410.336 376.772L408.287 376.26L407.775 378.309L409.823 378.821L410.336 376.772Z" fill="black"/>
<path d="M356.551 365.496L354.502 364.984L353.99 367.032L356.038 367.545L356.551 365.496Z" fill="black"/>
<path d="M358.6 366.009L356.551 365.496L356.038 367.545L358.087 368.057L358.6 366.009Z" fill="black"/>
<path d="M368.845 368.571L366.796 368.059L366.283 370.108L368.332 370.62L368.845 368.571Z" fill="black"/>
<path d="M370.894 369.084L368.845 368.571L368.332 370.62L370.381 371.133L370.894 369.084Z" fill="black"/>
<path d="M372.943 369.596L370.894 369.084L370.381 371.133L372.43 371.645L372.943 369.596Z" fill="black"/>
<path d="M374.991 370.109L372.943 369.596L372.43 371.645L374.479 372.158L374.991 370.109Z" fill="black"/>
<path d="M379.089 371.134L377.04 370.621L376.528 372.67L378.577 373.183L379.089 371.134Z" fill="black"/>
<path d="M389.334 373.696L387.285 373.184L386.773 375.233L388.822 375.745L389.334 373.696Z" fill="black"/>
<path d="M391.383 374.209L389.334 373.696L388.822 375.745L390.87 376.258L391.383 374.209Z" fill="black"/>
<path d="M397.53 375.746L395.481 375.234L394.968 377.283L397.017 377.795L397.53 375.746Z" fill="black"/>
<path d="M403.677 377.284L401.628 376.771L401.115 378.82L403.164 379.333L403.677 377.284Z" fill="black"/>
<path d="M407.775 378.309L405.726 377.796L405.213 379.845L407.262 380.358L407.775 378.309Z" fill="black"/>
<path d="M409.823 378.821L407.775 378.309L407.262 380.358L409.311 380.87L409.823 378.821Z" fill="black"/>
<path d="M411.872 379.334L409.823 378.821L409.311 380.87L411.36 381.383L411.872 379.334Z" fill="black"/>
<path d="M413.921 379.846L411.872 379.334L411.36 381.383L413.409 381.895L413.921 379.846Z" fill="black"/>
<path d="M356.038 367.545L353.99 367.032L353.477 369.081L355.526 369.594L356.038 367.545Z" fill="black"/>
<path d="M360.136 368.57L358.087 368.057L357.575 370.106L359.624 370.619L360.136 368.57Z" fill="black"/>
<path d="M362.185 369.083L360.136 368.57L359.624 370.619L361.673 371.131L362.185 369.083Z" fill="black"/>
<path d="M366.283 370.108L364.234 369.595L363.722 371.644L365.771 372.156L366.283 370.108Z" fill="black"/>
<path d="M374.479 372.158L372.43 371.645L371.918 373.694L373.966 374.207L374.479 372.158Z" fill="black"/>
<path d="M376.528 372.67L374.479 372.158L373.966 374.207L376.015 374.719L376.528 372.67Z" fill="black"/>
<path d="M378.577 373.183L376.528 372.67L376.015 374.719L378.064 375.232L378.577 373.183Z" fill="black"/>
<path d="M384.724 374.72L382.675 374.208L382.162 376.257L384.211 376.769L384.724 374.72Z" fill="black"/>
<path d="M388.822 375.745L386.773 375.233L386.26 377.282L388.309 377.794L388.822 375.745Z" fill="black"/>
<path d="M390.87 376.258L388.822 375.745L388.309 377.794L390.358 378.307L390.87 376.258Z" fill="black"/>
<path d="M399.066 378.308L397.017 377.795L396.505 379.844L398.554 380.357L399.066 378.308Z" fill="black"/>
<path d="M403.164 379.333L401.115 378.82L400.603 380.869L402.652 381.382L403.164 379.333Z" fill="black"/>
<path d="M405.213 379.845L403.164 379.333L402.652 381.382L404.701 381.894L405.213 379.845Z" fill="black"/>
<path d="M409.311 380.87L407.262 380.358L406.75 382.407L408.798 382.919L409.311 380.87Z" fill="black"/>
<path d="M413.409 381.895L411.36 381.383L410.847 383.432L412.896 383.944L413.409 381.895Z" fill="black"/>
<path d="M359.624 370.619L357.575 370.106L357.062 372.155L359.111 372.668L359.624 370.619Z" fill="black"/>
<path d="M361.673 371.131L359.624 370.619L359.111 372.668L361.16 373.18L361.673 371.131Z" fill="black"/>
<path d="M367.82 372.669L365.771 372.156L365.258 374.205L367.307 374.718L367.82 372.669Z" fill="black"/>
<path d="M371.918 373.694L369.869 373.182L369.356 375.23L371.405 375.743L371.918 373.694Z" fill="black"/>
<path d="M386.26 377.282L384.211 376.769L383.699 378.818L385.748 379.331L386.26 377.282Z" fill="black"/>
<path d="M388.309 377.794L386.26 377.282L385.748 379.331L387.797 379.843L388.309 377.794Z" fill="black"/>
<path d="M390.358 378.307L388.309 377.794L387.797 379.843L389.845 380.356L390.358 378.307Z" fill="black"/>
<path d="M392.407 378.819L390.358 378.307L389.845 380.356L391.894 380.868L392.407 378.819Z" fill="black"/>
<path d="M394.456 379.332L392.407 378.819L391.894 380.868L393.943 381.381L394.456 379.332Z" fill="black"/>
<path d="M398.554 380.357L396.505 379.844L395.992 381.893L398.041 382.406L398.554 380.357Z" fill="black"/>
<path d="M406.75 382.407L404.701 381.894L404.188 383.943L406.237 384.456L406.75 382.407Z" fill="black"/>
<path d="M408.798 382.919L406.75 382.407L406.237 384.456L408.286 384.968L408.798 382.919Z" fill="black"/>
<path d="M412.896 383.944L410.847 383.432L410.335 385.481L412.384 385.993L412.896 383.944Z" fill="black"/>
<path d="M361.16 373.18L359.111 372.668L358.599 374.717L360.648 375.229L361.16 373.18Z" fill="black"/>
<path d="M369.356 375.23L367.307 374.718L366.795 376.767L368.844 377.279L369.356 375.23Z" fill="black"/>
<path d="M373.454 376.255L371.405 375.743L370.892 377.792L372.941 378.304L373.454 376.255Z" fill="black"/>
<path d="M375.503 376.768L373.454 376.255L372.941 378.304L374.99 378.817L375.503 376.768Z" fill="black"/>
<path d="M377.552 377.281L375.503 376.768L374.99 378.817L377.039 379.329L377.552 377.281Z" fill="black"/>
<path d="M381.65 378.306L379.601 377.793L379.088 379.842L381.137 380.354L381.65 378.306Z" fill="black"/>
<path d="M383.699 378.818L381.65 378.306L381.137 380.354L383.186 380.867L383.699 378.818Z" fill="black"/>
<path d="M387.797 379.843L385.748 379.331L385.235 381.38L387.284 381.892L387.797 379.843Z" fill="black"/>
<path d="M389.845 380.356L387.797 379.843L387.284 381.892L389.333 382.405L389.845 380.356Z" fill="black"/>
<path d="M406.237 384.456L404.188 383.943L403.676 385.992L405.724 386.505L406.237 384.456Z" fill="black"/>
<path d="M408.286 384.968L406.237 384.456L405.724 386.505L407.773 387.017L408.286 384.968Z" fill="black"/>
<path d="M354.501 373.692L352.452 373.179L351.939 375.228L353.988 375.741L354.501 373.692Z" fill="black"/>
<path d="M358.599 374.717L356.55 374.204L356.037 376.253L358.086 376.766L358.599 374.717Z" fill="black"/>
<path d="M366.795 376.767L364.746 376.254L364.233 378.303L366.282 378.816L366.795 376.767Z" fill="black"/>
<path d="M370.892 377.792L368.844 377.279L368.331 379.328L370.38 379.841L370.892 377.792Z" fill="black"/>
<path d="M374.99 378.817L372.941 378.304L372.429 380.353L374.478 380.866L374.99 378.817Z" fill="black"/>
<path d="M379.088 379.842L377.039 379.329L376.527 381.378L378.576 381.891L379.088 379.842Z" fill="black"/>
<path d="M381.137 380.354L379.088 379.842L378.576 381.891L380.625 382.403L381.137 380.354Z" fill="black"/>
<path d="M383.186 380.867L381.137 380.354L380.625 382.403L382.674 382.916L383.186 380.867Z" fill="black"/>
<path d="M389.333 382.405L387.284 381.892L386.771 383.941L388.82 384.453L389.333 382.405Z" fill="black"/>
<path d="M391.382 382.917L389.333 382.405L388.82 384.453L390.869 384.966L391.382 382.917Z" fill="black"/>
<path d="M393.431 383.43L391.382 382.917L390.869 384.966L392.918 385.479L393.431 383.43Z" fill="black"/>
<path d="M397.529 384.455L395.48 383.942L394.967 385.991L397.016 386.504L397.529 384.455Z" fill="black"/>
<path d="M401.627 385.48L399.578 384.967L399.065 387.016L401.114 387.529L401.627 385.48Z" fill="black"/>
<path d="M407.773 387.017L405.724 386.505L405.212 388.554L407.261 389.066L407.773 387.017Z" fill="black"/>
<path d="M409.822 387.53L407.773 387.017L407.261 389.066L409.31 389.579L409.822 387.53Z" fill="black"/>
<path d="M411.871 388.042L409.822 387.53L409.31 389.579L411.359 390.091L411.871 388.042Z" fill="black"/>
<path d="M358.086 376.766L356.037 376.253L355.525 378.302L357.574 378.815L358.086 376.766Z" fill="black"/>
<path d="M364.233 378.303L362.184 377.791L361.672 379.84L363.721 380.352L364.233 378.303Z" fill="black"/>
<path d="M368.331 379.328L366.282 378.816L365.77 380.865L367.819 381.377L368.331 379.328Z" fill="black"/>
<path d="M376.527 381.378L374.478 380.866L373.965 382.915L376.014 383.427L376.527 381.378Z" fill="black"/>
<path d="M384.723 383.428L382.674 382.916L382.161 384.965L384.21 385.477L384.723 383.428Z" fill="black"/>
<path d="M386.771 383.941L384.723 383.428L384.21 385.477L386.259 385.99L386.771 383.941Z" fill="black"/>
<path d="M392.918 385.479L390.869 384.966L390.357 387.015L392.406 387.527L392.918 385.479Z" fill="black"/>
<path d="M401.114 387.529L399.065 387.016L398.553 389.065L400.602 389.578L401.114 387.529Z" fill="black"/>
<path d="M403.163 388.041L401.114 387.529L400.602 389.578L402.651 390.09L403.163 388.041Z" fill="black"/>
<path d="M409.31 389.579L407.261 389.066L406.748 391.115L408.797 391.628L409.31 389.579Z" fill="black"/>
<path d="M411.359 390.091L409.31 389.579L408.797 391.628L410.846 392.14L411.359 390.091Z" fill="black"/>
<path d="M355.525 378.302L353.476 377.79L352.963 379.839L355.012 380.351L355.525 378.302Z" fill="black"/>
<path d="M365.77 380.865L363.721 380.352L363.208 382.401L365.257 382.914L365.77 380.865Z" fill="black"/>
<path d="M367.819 381.377L365.77 380.865L365.257 382.914L367.306 383.426L367.819 381.377Z" fill="black"/>
<path d="M371.916 382.402L369.867 381.89L369.355 383.939L371.404 384.451L371.916 382.402Z" fill="black"/>
<path d="M373.965 382.915L371.916 382.402L371.404 384.451L373.453 384.964L373.965 382.915Z" fill="black"/>
<path d="M376.014 383.427L373.965 382.915L373.453 384.964L375.502 385.476L376.014 383.427Z" fill="black"/>
<path d="M384.21 385.477L382.161 384.965L381.649 387.014L383.698 387.526L384.21 385.477Z" fill="black"/>
<path d="M390.357 387.015L388.308 386.502L387.795 388.551L389.844 389.064L390.357 387.015Z" fill="black"/>
<path d="M396.504 388.552L394.455 388.04L393.942 390.089L395.991 390.601L396.504 388.552Z" fill="black"/>
<path d="M398.553 389.065L396.504 388.552L395.991 390.601L398.04 391.114L398.553 389.065Z" fill="black"/>
<path d="M402.651 390.09L400.602 389.578L400.089 391.626L402.138 392.139L402.651 390.09Z" fill="black"/>
<path d="M408.797 391.628L406.748 391.115L406.236 393.164L408.285 393.677L408.797 391.628Z" fill="black"/>
<path d="M352.963 379.839L350.914 379.326L350.402 381.375L352.451 381.888L352.963 379.839Z" fill="black"/>
<path d="M357.061 380.864L355.012 380.351L354.5 382.4L356.549 382.913L357.061 380.864Z" fill="black"/>
<path d="M359.11 381.376L357.061 380.864L356.549 382.913L358.598 383.425L359.11 381.376Z" fill="black"/>
<path d="M363.208 382.401L361.159 381.889L360.647 383.938L362.696 384.45L363.208 382.401Z" fill="black"/>
<path d="M367.306 383.426L365.257 382.914L364.745 384.963L366.793 385.475L367.306 383.426Z" fill="black"/>
<path d="M373.453 384.964L371.404 384.451L370.891 386.5L372.94 387.013L373.453 384.964Z" fill="black"/>
<path d="M377.551 385.989L375.502 385.476L374.989 387.525L377.038 388.038L377.551 385.989Z" fill="black"/>
<path d="M379.6 386.501L377.551 385.989L377.038 388.038L379.087 388.55L379.6 386.501Z" fill="black"/>
<path d="M381.649 387.014L379.6 386.501L379.087 388.55L381.136 389.063L381.649 387.014Z" fill="black"/>
<path d="M383.698 387.526L381.649 387.014L381.136 389.063L383.185 389.575L383.698 387.526Z" fill="black"/>
<path d="M385.746 388.039L383.698 387.526L383.185 389.575L385.234 390.088L385.746 388.039Z" fill="black"/>
<path d="M391.893 389.576L389.844 389.064L389.332 391.113L391.381 391.625L391.893 389.576Z" fill="black"/>
<path d="M395.991 390.601L393.942 390.089L393.43 392.138L395.479 392.65L395.991 390.601Z" fill="black"/>
<path d="M398.04 391.114L395.991 390.601L395.479 392.65L397.528 393.163L398.04 391.114Z" fill="black"/>
<path d="M402.138 392.139L400.089 391.626L399.577 393.675L401.625 394.188L402.138 392.139Z" fill="black"/>
<path d="M408.285 393.677L406.236 393.164L405.723 395.213L407.772 395.725L408.285 393.677Z" fill="black"/>
<path d="M410.334 394.189L408.285 393.677L407.772 395.725L409.821 396.238L410.334 394.189Z" fill="black"/>
<path d="M352.451 381.888L350.402 381.375L349.889 383.424L351.938 383.936L352.451 381.888Z" fill="black"/>
<path d="M354.5 382.4L352.451 381.888L351.938 383.936L353.987 384.449L354.5 382.4Z" fill="black"/>
<path d="M358.598 383.425L356.549 382.913L356.036 384.962L358.085 385.474L358.598 383.425Z" fill="black"/>
<path d="M364.745 384.963L362.696 384.45L362.183 386.499L364.232 387.012L364.745 384.963Z" fill="black"/>
<path d="M368.842 385.988L366.793 385.475L366.281 387.524L368.33 388.037L368.842 385.988Z" fill="black"/>
<path d="M374.989 387.525L372.94 387.013L372.428 389.062L374.477 389.574L374.989 387.525Z" fill="black"/>
<path d="M379.087 388.55L377.038 388.038L376.526 390.087L378.575 390.599L379.087 388.55Z" fill="black"/>
<path d="M381.136 389.063L379.087 388.55L378.575 390.599L380.624 391.112L381.136 389.063Z" fill="black"/>
<path d="M389.332 391.113L387.283 390.6L386.77 392.649L388.819 393.162L389.332 391.113Z" fill="black"/>
<path d="M391.381 391.625L389.332 391.113L388.819 393.162L390.868 393.674L391.381 391.625Z" fill="black"/>
<path d="M397.528 393.163L395.479 392.65L394.966 394.699L397.015 395.212L397.528 393.163Z" fill="black"/>
<path d="M399.577 393.675L397.528 393.163L397.015 395.212L399.064 395.724L399.577 393.675Z" fill="black"/>
<path d="M405.723 395.213L403.674 394.7L403.162 396.749L405.211 397.262L405.723 395.213Z" fill="black"/>
<path d="M407.772 395.725L405.723 395.213L405.211 397.262L407.26 397.774L407.772 395.725Z" fill="black"/>
<path d="M409.821 396.238L407.772 395.725L407.26 397.774L409.309 398.287L409.821 396.238Z" fill="black"/>
<path d="M351.938 383.936L349.889 383.424L349.377 385.473L351.426 385.985L351.938 383.936Z" fill="black"/>
<path d="M358.085 385.474L356.036 384.962L355.524 387.01L357.573 387.523L358.085 385.474Z" fill="black"/>
<path d="M362.183 386.499L360.134 385.987L359.622 388.035L361.671 388.548L362.183 386.499Z" fill="black"/>
<path d="M368.33 388.037L366.281 387.524L365.768 389.573L367.817 390.086L368.33 388.037Z" fill="black"/>
<path d="M372.428 389.062L370.379 388.549L369.866 390.598L371.915 391.111L372.428 389.062Z" fill="black"/>
<path d="M392.917 394.187L390.868 393.674L390.356 395.723L392.405 396.236L392.917 394.187Z" fill="black"/>
<path d="M394.966 394.699L392.917 394.187L392.405 396.236L394.454 396.748L394.966 394.699Z" fill="black"/>
<path d="M403.162 396.749L401.113 396.237L400.6 398.286L402.649 398.798L403.162 396.749Z" fill="black"/>
<path d="M405.211 397.262L403.162 396.749L402.649 398.798L404.698 399.311L405.211 397.262Z" fill="black"/>
<path d="M407.26 397.774L405.211 397.262L404.698 399.311L406.747 399.823L407.26 397.774Z" fill="black"/>
<path d="M353.475 386.498L351.426 385.985L350.913 388.034L352.962 388.547L353.475 386.498Z" fill="black"/>
<path d="M355.524 387.01L353.475 386.498L352.962 388.547L355.011 389.059L355.524 387.01Z" fill="black"/>
<path d="M361.671 388.548L359.622 388.035L359.109 390.084L361.158 390.597L361.671 388.548Z" fill="black"/>
<path d="M363.72 389.061L361.671 388.548L361.158 390.597L363.207 391.109L363.72 389.061Z" fill="black"/>
<path d="M369.866 390.598L367.817 390.086L367.305 392.134L369.354 392.647L369.866 390.598Z" fill="black"/>
<path d="M373.964 391.623L371.915 391.111L371.403 393.16L373.452 393.672L373.964 391.623Z" fill="black"/>
<path d="M376.013 392.136L373.964 391.623L373.452 393.672L375.501 394.185L376.013 392.136Z" fill="black"/>
<path d="M378.062 392.648L376.013 392.136L375.501 394.185L377.55 394.697L378.062 392.648Z" fill="black"/>
<path d="M380.111 393.161L378.062 392.648L377.55 394.697L379.599 395.21L380.111 393.161Z" fill="black"/>
<path d="M382.16 393.673L380.111 393.161L379.599 395.21L381.647 395.722L382.16 393.673Z" fill="black"/>
<path d="M384.209 394.186L382.16 393.673L381.647 395.722L383.696 396.235L384.209 394.186Z" fill="black"/>
<path d="M386.258 394.698L384.209 394.186L383.696 396.235L385.745 396.747L386.258 394.698Z" fill="black"/>
<path d="M390.356 395.723L388.307 395.211L387.794 397.26L389.843 397.772L390.356 395.723Z" fill="black"/>
<path d="M392.405 396.236L390.356 395.723L389.843 397.772L391.892 398.285L392.405 396.236Z" fill="black"/>
<path d="M394.454 396.748L392.405 396.236L391.892 398.285L393.941 398.797L394.454 396.748Z" fill="black"/>
<path d="M396.503 397.261L394.454 396.748L393.941 398.797L395.99 399.31L396.503 397.261Z" fill="black"/>
<path d="M398.552 397.773L396.503 397.261L395.99 399.31L398.039 399.822L398.552 397.773Z" fill="black"/>
<path d="M400.6 398.286L398.552 397.773L398.039 399.822L400.088 400.335L400.6 398.286Z" fill="black"/>
<path d="M402.649 398.798L400.6 398.286L400.088 400.335L402.137 400.847L402.649 398.798Z" fill="black"/>
<path d="M404.698 399.311L402.649 398.798L402.137 400.847L404.186 401.36L404.698 399.311Z" fill="black"/>
<path d="M406.747 399.823L404.698 399.311L404.186 401.36L406.235 401.872L406.747 399.823Z" fill="black"/>
<path d="M408.796 400.336L406.747 399.823L406.235 401.872L408.284 402.385L408.796 400.336Z" fill="black"/>
<path d="M367.305 392.134L365.256 391.622L364.743 393.671L366.792 394.183L367.305 392.134Z" fill="black"/>
<path d="M371.403 393.16L369.354 392.647L368.841 394.696L370.89 395.208L371.403 393.16Z" fill="black"/>
<path d="M375.501 394.185L373.452 393.672L372.939 395.721L374.988 396.233L375.501 394.185Z" fill="black"/>
<path d="M377.55 394.697L375.501 394.185L374.988 396.233L377.037 396.746L377.55 394.697Z" fill="black"/>
<path d="M381.647 395.722L379.599 395.21L379.086 397.259L381.135 397.771L381.647 395.722Z" fill="black"/>
<path d="M385.745 396.747L383.696 396.235L383.184 398.284L385.233 398.796L385.745 396.747Z" fill="black"/>
<path d="M387.794 397.26L385.745 396.747L385.233 398.796L387.282 399.309L387.794 397.26Z" fill="black"/>
<path d="M389.843 397.772L387.794 397.26L387.282 399.309L389.331 399.821L389.843 397.772Z" fill="black"/>
<path d="M391.892 398.285L389.843 397.772L389.331 399.821L391.38 400.334L391.892 398.285Z" fill="black"/>
<path d="M400.088 400.335L398.039 399.822L397.526 401.871L399.575 402.384L400.088 400.335Z" fill="black"/>
<path d="M406.235 401.872L404.186 401.36L403.673 403.409L405.722 403.921L406.235 401.872Z" fill="black"/>
<path d="M408.284 402.385L406.235 401.872L405.722 403.921L407.771 404.434L408.284 402.385Z" fill="black"/>
<path d="M350.401 390.083L348.352 389.571L347.839 391.62L349.888 392.132L350.401 390.083Z" fill="black"/>
<path d="M352.45 390.596L350.401 390.083L349.888 392.132L351.937 392.645L352.45 390.596Z" fill="black"/>
<path d="M354.499 391.108L352.45 390.596L351.937 392.645L353.986 393.157L354.499 391.108Z" fill="black"/>
<path d="M356.548 391.621L354.499 391.108L353.986 393.157L356.035 393.67L356.548 391.621Z" fill="black"/>
<path d="M358.597 392.133L356.548 391.621L356.035 393.67L358.084 394.182L358.597 392.133Z" fill="black"/>
<path d="M360.646 392.646L358.597 392.133L358.084 394.182L360.133 394.695L360.646 392.646Z" fill="black"/>
<path d="M362.694 393.158L360.646 392.646L360.133 394.695L362.182 395.207L362.694 393.158Z" fill="black"/>
<path d="M368.841 394.696L366.792 394.183L366.28 396.232L368.329 396.745L368.841 394.696Z" fill="black"/>
<path d="M374.988 396.233L372.939 395.721L372.427 397.77L374.476 398.282L374.988 396.233Z" fill="black"/>
<path d="M379.086 397.259L377.037 396.746L376.525 398.795L378.573 399.307L379.086 397.259Z" fill="black"/>
<path d="M381.135 397.771L379.086 397.259L378.573 399.307L380.622 399.82L381.135 397.771Z" fill="black"/>
<path d="M385.233 398.796L383.184 398.284L382.671 400.332L384.72 400.845L385.233 398.796Z" fill="black"/>
<path d="M391.38 400.334L389.331 399.821L388.818 401.87L390.867 402.383L391.38 400.334Z" fill="black"/>
<path d="M395.478 401.359L393.429 400.846L392.916 402.895L394.965 403.408L395.478 401.359Z" fill="black"/>
<path d="M399.575 402.384L397.526 401.871L397.014 403.92L399.063 404.433L399.575 402.384Z" fill="black"/>
<path d="M401.624 402.896L399.575 402.384L399.063 404.433L401.112 404.945L401.624 402.896Z" fill="black"/>
<path d="M407.771 404.434L405.722 403.921L405.21 405.97L407.259 406.483L407.771 404.434Z" fill="black"/>
<path d="M349.888 392.132L347.839 391.62L347.327 393.669L349.376 394.181L349.888 392.132Z" fill="black"/>
<path d="M362.182 395.207L360.133 394.695L359.62 396.744L361.669 397.256L362.182 395.207Z" fill="black"/>
<path d="M366.28 396.232L364.231 395.72L363.718 397.769L365.767 398.281L366.28 396.232Z" fill="black"/>
<path d="M378.573 399.307L376.525 398.795L376.012 400.844L378.061 401.356L378.573 399.307Z" fill="black"/>
<path d="M382.671 400.332L380.622 399.82L380.11 401.869L382.159 402.381L382.671 400.332Z" fill="black"/>
<path d="M384.72 400.845L382.671 400.332L382.159 402.381L384.208 402.894L384.72 400.845Z" fill="black"/>
<path d="M386.769 401.358L384.72 400.845L384.208 402.894L386.257 403.406L386.769 401.358Z" fill="black"/>
<path d="M388.818 401.87L386.769 401.358L386.257 403.406L388.306 403.919L388.818 401.87Z" fill="black"/>
<path d="M390.867 402.383L388.818 401.87L388.306 403.919L390.355 404.431L390.867 402.383Z" fill="black"/>
<path d="M399.063 404.433L397.014 403.92L396.501 405.969L398.55 406.482L399.063 404.433Z" fill="black"/>
<path d="M401.112 404.945L399.063 404.433L398.55 406.482L400.599 406.994L401.112 404.945Z" fill="black"/>
<path d="M407.259 406.483L405.21 405.97L404.697 408.019L406.746 408.532L407.259 406.483Z" fill="black"/>
<path d="M349.376 394.181L347.327 393.669L346.814 395.718L348.863 396.23L349.376 394.181Z" fill="black"/>
<path d="M353.474 395.206L351.425 394.694L350.912 396.743L352.961 397.255L353.474 395.206Z" fill="black"/>
<path d="M355.523 395.719L353.474 395.206L352.961 397.255L355.01 397.768L355.523 395.719Z" fill="black"/>
<path d="M357.572 396.231L355.523 395.719L355.01 397.768L357.059 398.28L357.572 396.231Z" fill="black"/>
<path d="M361.669 397.256L359.62 396.744L359.108 398.793L361.157 399.305L361.669 397.256Z" fill="black"/>
<path d="M369.865 399.306L367.816 398.794L367.304 400.843L369.353 401.355L369.865 399.306Z" fill="black"/>
<path d="M371.914 399.819L369.865 399.306L369.353 401.355L371.402 401.868L371.914 399.819Z" fill="black"/>
<path d="M378.061 401.356L376.012 400.844L375.5 402.893L377.548 403.405L378.061 401.356Z" fill="black"/>
<path d="M386.257 403.406L384.208 402.894L383.695 404.943L385.744 405.455L386.257 403.406Z" fill="black"/>
<path d="M388.306 403.919L386.257 403.406L385.744 405.455L387.793 405.968L388.306 403.919Z" fill="black"/>
<path d="M390.355 404.431L388.306 403.919L387.793 405.968L389.842 406.48L390.355 404.431Z" fill="black"/>
<path d="M392.404 404.944L390.355 404.431L389.842 406.48L391.891 406.993L392.404 404.944Z" fill="black"/>
<path d="M394.453 405.457L392.404 404.944L391.891 406.993L393.94 407.505L394.453 405.457Z" fill="black"/>
<path d="M396.501 405.969L394.453 405.457L393.94 407.505L395.989 408.018L396.501 405.969Z" fill="black"/>
<path d="M398.55 406.482L396.501 405.969L395.989 408.018L398.038 408.53L398.55 406.482Z" fill="black"/>
<path d="M400.599 406.994L398.55 406.482L398.038 408.53L400.087 409.043L400.599 406.994Z" fill="black"/>
<path d="M402.648 407.507L400.599 406.994L400.087 409.043L402.136 409.556L402.648 407.507Z" fill="black"/>
<path d="M404.697 408.019L402.648 407.507L402.136 409.556L404.185 410.068L404.697 408.019Z" fill="black"/>
<path d="M406.746 408.532L404.697 408.019L404.185 410.068L406.234 410.581L406.746 408.532Z" fill="black"/>
<path d="M348.863 396.23L346.814 395.718L346.302 397.767L348.351 398.279L348.863 396.23Z" fill="black"/>
<path d="M352.961 397.255L350.912 396.743L350.4 398.792L352.449 399.304L352.961 397.255Z" fill="black"/>
<path d="M355.01 397.768L352.961 397.255L352.449 399.304L354.498 399.817L355.01 397.768Z" fill="black"/>
<path d="M357.059 398.28L355.01 397.768L354.498 399.817L356.547 400.329L357.059 398.28Z" fill="black"/>
<path d="M361.157 399.305L359.108 398.793L358.595 400.842L360.644 401.354L361.157 399.305Z" fill="black"/>
<path d="M367.304 400.843L365.255 400.33L364.742 402.379L366.791 402.892L367.304 400.843Z" fill="black"/>
<path d="M369.353 401.355L367.304 400.843L366.791 402.892L368.84 403.404L369.353 401.355Z" fill="black"/>
<path d="M373.451 402.38L371.402 401.868L370.889 403.917L372.938 404.429L373.451 402.38Z" fill="black"/>
<path d="M377.548 403.405L375.5 402.893L374.987 404.942L377.036 405.454L377.548 403.405Z" fill="black"/>
<path d="M379.597 403.918L377.548 403.405L377.036 405.454L379.085 405.967L379.597 403.918Z" fill="black"/>
<path d="M383.695 404.943L381.646 404.43L381.134 406.479L383.183 406.992L383.695 404.943Z" fill="black"/>
<path d="M395.989 408.018L393.94 407.505L393.427 409.554L395.476 410.067L395.989 408.018Z" fill="black"/>
<path d="M400.087 409.043L398.038 408.53L397.525 410.579L399.574 411.092L400.087 409.043Z" fill="black"/>
<path d="M402.136 409.556L400.087 409.043L399.574 411.092L401.623 411.604L402.136 409.556Z" fill="black"/>
<path d="M406.234 410.581L404.185 410.068L403.672 412.117L405.721 412.63L406.234 410.581Z" fill="black"/>
<path d="M348.351 398.279L346.302 397.767L345.789 399.816L347.838 400.328L348.351 398.279Z" fill="black"/>
<path d="M352.449 399.304L350.4 398.792L349.887 400.841L351.936 401.353L352.449 399.304Z" fill="black"/>
<path d="M354.498 399.817L352.449 399.304L351.936 401.353L353.985 401.866L354.498 399.817Z" fill="black"/>
<path d="M356.547 400.329L354.498 399.817L353.985 401.866L356.034 402.378L356.547 400.329Z" fill="black"/>
<path d="M360.644 401.354L358.595 400.842L358.083 402.891L360.132 403.403L360.644 401.354Z" fill="black"/>
<path d="M368.84 403.404L366.791 402.892L366.279 404.941L368.328 405.453L368.84 403.404Z" fill="black"/>
<path d="M370.889 403.917L368.84 403.404L368.328 405.453L370.377 405.966L370.889 403.917Z" fill="black"/>
<path d="M377.036 405.454L374.987 404.942L374.474 406.991L376.523 407.503L377.036 405.454Z" fill="black"/>
<path d="M389.33 408.529L387.281 408.017L386.768 410.066L388.817 410.578L389.33 408.529Z" fill="black"/>
<path d="M391.379 409.042L389.33 408.529L388.817 410.578L390.866 411.091L391.379 409.042Z" fill="black"/>
<path d="M395.476 410.067L393.427 409.554L392.915 411.603L394.964 412.116L395.476 410.067Z" fill="black"/>
<path d="M399.574 411.092L397.525 410.579L397.013 412.628L399.062 413.141L399.574 411.092Z" fill="black"/>
<path d="M401.623 411.604L399.574 411.092L399.062 413.141L401.111 413.653L401.623 411.604Z" fill="black"/>
<path d="M347.838 400.328L345.789 399.816L345.277 401.864L347.326 402.377L347.838 400.328Z" fill="black"/>
<path d="M360.132 403.403L358.083 402.891L357.57 404.94L359.619 405.452L360.132 403.403Z" fill="black"/>
<path d="M368.328 405.453L366.279 404.941L365.766 406.99L367.815 407.502L368.328 405.453Z" fill="black"/>
<path d="M370.377 405.966L368.328 405.453L367.815 407.502L369.864 408.015L370.377 405.966Z" fill="black"/>
<path d="M372.426 406.478L370.377 405.966L369.864 408.015L371.913 408.527L372.426 406.478Z" fill="black"/>
<path d="M376.523 407.503L374.474 406.991L373.962 409.04L376.011 409.552L376.523 407.503Z" fill="black"/>
<path d="M378.572 408.016L376.523 407.503L376.011 409.552L378.06 410.065L378.572 408.016Z" fill="black"/>
<path d="M380.621 408.528L378.572 408.016L378.06 410.065L380.109 410.577L380.621 408.528Z" fill="black"/>
<path d="M384.719 409.553L382.67 409.041L382.158 411.09L384.207 411.602L384.719 409.553Z" fill="black"/>
<path d="M386.768 410.066L384.719 409.553L384.207 411.602L386.256 412.115L386.768 410.066Z" fill="black"/>
<path d="M390.866 411.091L388.817 410.578L388.305 412.627L390.354 413.14L390.866 411.091Z" fill="black"/>
<path d="M392.915 411.603L390.866 411.091L390.354 413.14L392.402 413.652L392.915 411.603Z" fill="black"/>
<path d="M399.062 413.141L397.013 412.628L396.5 414.677L398.549 415.19L399.062 413.141Z" fill="black"/>
<path d="M403.16 414.166L401.111 413.653L400.598 415.702L402.647 416.215L403.16 414.166Z" fill="black"/>
<path d="M405.209 414.678L403.16 414.166L402.647 416.215L404.696 416.727L405.209 414.678Z" fill="black"/>
<path d="M347.326 402.377L345.277 401.864L344.764 403.913L346.813 404.426L347.326 402.377Z" fill="black"/>
<path d="M349.375 402.889L347.326 402.377L346.813 404.426L348.862 404.938L349.375 402.889Z" fill="black"/>
<path d="M351.424 403.402L349.375 402.889L348.862 404.938L350.911 405.451L351.424 403.402Z" fill="black"/>
<path d="M353.473 403.915L351.424 403.402L350.911 405.451L352.96 405.963L353.473 403.915Z" fill="black"/>
<path d="M355.521 404.427L353.473 403.915L352.96 405.963L355.009 406.476L355.521 404.427Z" fill="black"/>
<path d="M357.57 404.94L355.521 404.427L355.009 406.476L357.058 406.988L357.57 404.94Z" fill="black"/>
<path d="M359.619 405.452L357.57 404.94L357.058 406.988L359.107 407.501L359.619 405.452Z" fill="black"/>
<path d="M365.766 406.99L363.717 406.477L363.205 408.526L365.254 409.039L365.766 406.99Z" fill="black"/>
<path d="M371.913 408.527L369.864 408.015L369.352 410.064L371.401 410.576L371.913 408.527Z" fill="black"/>
<path d="M376.011 409.552L373.962 409.04L373.449 411.089L375.498 411.601L376.011 409.552Z" fill="black"/>
<path d="M382.158 411.09L380.109 410.577L379.596 412.626L381.645 413.139L382.158 411.09Z" fill="black"/>
<path d="M384.207 411.602L382.158 411.09L381.645 413.139L383.694 413.651L384.207 411.602Z" fill="black"/>
<path d="M386.256 412.115L384.207 411.602L383.694 413.651L385.743 414.164L386.256 412.115Z" fill="black"/>
<path d="M390.354 413.14L388.305 412.627L387.792 414.676L389.841 415.189L390.354 413.14Z" fill="black"/>
<path d="M394.451 414.165L392.402 413.652L391.89 415.701L393.939 416.214L394.451 414.165Z" fill="black"/>
<path d="M396.5 414.677L394.451 414.165L393.939 416.214L395.988 416.726L396.5 414.677Z" fill="black"/>
<path d="M400.598 415.702L398.549 415.19L398.037 417.239L400.086 417.751L400.598 415.702Z" fill="black"/>
</g>
<defs>
<filter id="filter0_d" x="361.264" y="115.994" width="291" height="292" filterUnits="userSpaceOnUse" color-interpolation-filters="sRGB">
<feFlood flood-opacity="0" result="BackgroundImageFix"/>
<feColorMatrix in="SourceAlpha" type="matrix" values="0 0 0 0 0 0 0 0 0 0 0 0 0 0 0 0 0 0 127 0"/>
<feOffset dy="4"/>
<feGaussianBlur stdDeviation="34.5"/>
<feColorMatrix type="matrix" values="0 0 0 0 0 0 0 0 0 0 0 0 0 0 0 0 0 0 0.4 0"/>
<feBlend mode="normal" in2="BackgroundImageFix" result="effect1_dropShadow"/>
<feBlend mode="normal" in="SourceGraphic" in2="effect1_dropShadow" result="shape"/>
</filter>
<filter id="filter1_df" x="38.9057" y="85.3879" width="411.063" height="341.523" filterUnits="userSpaceOnUse" color-interpolation-filters="sRGB">
<feFlood flood-opacity="0" result="BackgroundImageFix"/>
<feColorMatrix in="SourceAlpha" type="matrix" values="0 0 0 0 0 0 0 0 0 0 0 0 0 0 0 0 0 0 127 0"/>
<feOffset dy="4"/>
<feGaussianBlur stdDeviation="2"/>
<feColorMatrix type="matrix" values="0 0 0 0 0 0 0 0 0 0 0 0 0 0 0 0 0 0 0.64 0"/>
<feBlend mode="normal" in2="BackgroundImageFix" result="effect1_dropShadow"/>
<feBlend mode="normal" in="SourceGraphic" in2="effect1_dropShadow" result="shape"/>
<feGaussianBlur stdDeviation="5" result="effect2_foregroundBlur"/>
</filter>
<filter id="filter2_df" x="104.984" y="298.197" width="241.106" height="118.47" filterUnits="userSpaceOnUse" color-interpolation-filters="sRGB">
<feFlood flood-opacity="0" result="BackgroundImageFix"/>
<feColorMatrix in="SourceAlpha" type="matrix" values="0 0 0 0 0 0 0 0 0 0 0 0 0 0 0 0 0 0 127 0"/>
<feOffset dy="4"/>
<feGaussianBlur stdDeviation="2"/>
<feColorMatrix type="matrix" values="0 0 0 0 0.0333333 0 0 0 0 0.0165278 0 0 0 0 0.0165278 0 0 0 0.33 0"/>
<feBlend mode="normal" in2="BackgroundImageFix" result="effect1_dropShadow"/>
<feBlend mode="normal" in="SourceGraphic" in2="effect1_dropShadow" result="shape"/>
<feGaussianBlur stdDeviation="2.5" result="effect2_foregroundBlur"/>
</filter>
<linearGradient id="paint0_linear" x1="422.514" y1="83.4941" x2="422.514" y2="368.994" gradientUnits="userSpaceOnUse">
<stop stop-color="#E1D24B"/>
<stop offset="0.130208" stop-color="#E1D24B" stop-opacity="0.72"/>
</linearGradient>
<linearGradient id="paint1_linear" x1="273.162" y1="249.4" x2="81.6587" y2="182.943" gradientUnits="userSpaceOnUse">
<stop stop-color="#E1D24B" stop-opacity="0.76"/>
<stop offset="0.114583" stop-color="#C1B866"/>
</linearGradient>
<linearGradient id="paint2_linear" x1="271.264" y1="313.494" x2="366.764" y2="426.994" gradientUnits="userSpaceOnUse">
<stop offset="0.364512" stop-color="#C1B866"/>
<stop offset="1" stop-color="#E1D24B" stop-opacity="0.76"/>
</linearGradient>
<linearGradient id="paint3_linear" x1="523.014" y1="331.776" x2="523.014" y2="180.494" gradientUnits="userSpaceOnUse">
<stop/>
<stop offset="0.270833" stop-color="#6A6959"/>
</linearGradient>
<linearGradient id="paint4_linear" x1="299.667" y1="240.486" x2="174.666" y2="284.986" gradientUnits="userSpaceOnUse">
<stop offset="0.229167" stop-color="#AEA65D" stop-opacity="0.76"/>
<stop offset="0.880208" stop-color="#C1B866"/>
</linearGradient>
<linearGradient id="paint5_linear" x1="299.264" y1="226.494" x2="174.264" y2="270.994" gradientUnits="userSpaceOnUse">
<stop offset="0.229167" stop-color="#E1D24B" stop-opacity="0.76"/>
<stop offset="0.880208" stop-color="#C1B866"/>
</linearGradient>
<linearGradient id="paint6_linear" x1="505.764" y1="175.994" x2="505.764" y2="453.994" gradientUnits="userSpaceOnUse">
<stop offset="0.265625" stop-color="#C1B866"/>
<stop offset="1" stop-color="#E1D24B" stop-opacity="0.76"/>
</linearGradient>
<linearGradient id="paint7_linear" x1="522.514" y1="327.776" x2="522.514" y2="176.494" gradientUnits="userSpaceOnUse">
<stop stop-color="#C1B866"/>
<stop offset="1" stop-color="#E1D24B"/>
</linearGradient>
<linearGradient id="paint8_linear" x1="390.257" y1="347.54" x2="373.271" y2="415.448" gradientUnits="userSpaceOnUse">
<stop offset="0.447917" stop-color="#D5C646" stop-opacity="0.28"/>
<stop offset="0.9375" stop-color="#E1D24B"/>
</linearGradient>
<clipPath id="clip0">
<rect width="70" height="70" fill="white" transform="translate(356.303 339.047) rotate(14.0436)"/>
</clipPath>
</defs>
</svg>
